<svg id="mermaid-1773136055462" width="100%" xmlns="http://www.w3.org/2000/svg" xmlns:xlink="http://www.w3.org/1999/xlink" style="max-width: 1897.93px; background-color: rgb(240, 240, 235);" viewBox="-8 -8 1897.92822265625 949.7906494140625" role="graphics-document document" aria-roledescription="flowchart-v2"><rect width="100%" height="100%" fill="#F0F0EB"/><style>#mermaid-1773136055462{font-family:Space Mono,Outfit,sans-serif;font-size:16px;fill:#000000;}#mermaid-1773136055462 .error-icon{fill:#552222;}#mermaid-1773136055462 .error-text{fill:#552222;stroke:#552222;}#mermaid-1773136055462 .edge-thickness-normal{stroke-width:2px;}#mermaid-1773136055462 .edge-thickness-thick{stroke-width:3.5px;}#mermaid-1773136055462 .edge-pattern-solid{stroke-dasharray:0;}#mermaid-1773136055462 .edge-pattern-dashed{stroke-dasharray:3;}#mermaid-1773136055462 .edge-pattern-dotted{stroke-dasharray:2;}#mermaid-1773136055462 .marker{fill:#666;stroke:#666;}#mermaid-1773136055462 .marker.cross{stroke:#666;}#mermaid-1773136055462 svg{font-family:Space Mono,Outfit,sans-serif;font-size:16px;}#mermaid-1773136055462 .label{font-family:Space Mono,Outfit,sans-serif;color:#000000;}#mermaid-1773136055462 .cluster-label text{fill:#333;}#mermaid-1773136055462 .cluster-label span,#mermaid-1773136055462 p{color:#333;}#mermaid-1773136055462 .label text,#mermaid-1773136055462 span,#mermaid-1773136055462 p{fill:#000000;color:#000000;}#mermaid-1773136055462 .node rect,#mermaid-1773136055462 .node circle,#mermaid-1773136055462 .node ellipse,#mermaid-1773136055462 .node polygon,#mermaid-1773136055462 .node path{fill:#eee;stroke:#999;stroke-width:1px;}#mermaid-1773136055462 .flowchart-label text{text-anchor:middle;}#mermaid-1773136055462 .node .katex path{fill:#000;stroke:#000;stroke-width:1px;}#mermaid-1773136055462 .node .label{text-align:center;}#mermaid-1773136055462 .node.clickable{cursor:pointer;}#mermaid-1773136055462 .arrowheadPath{fill:#333333;}#mermaid-1773136055462 .edgePath .path{stroke:#666;stroke-width:2.0px;}#mermaid-1773136055462 .flowchart-link{stroke:#666;fill:none;}#mermaid-1773136055462 .edgeLabel{background-color:white;text-align:center;}#mermaid-1773136055462 .edgeLabel rect{opacity:0.5;background-color:white;fill:white;}#mermaid-1773136055462 .labelBkg{background-color:rgba(255, 255, 255, 0.5);}#mermaid-1773136055462 .cluster rect{fill:hsl(0, 0%, 98.9215686275%);stroke:#707070;stroke-width:1px;}#mermaid-1773136055462 .cluster text{fill:#333;}#mermaid-1773136055462 .cluster span,#mermaid-1773136055462 p{color:#333;}#mermaid-1773136055462 div.mermaidTooltip{position:absolute;text-align:center;max-width:200px;padding:2px;font-family:Space Mono,Outfit,sans-serif;font-size:12px;background:hsl(-160, 0%, 93.3333333333%);border:1px solid #707070;border-radius:2px;pointer-events:none;z-index:100;}#mermaid-1773136055462 .flowchartTitleText{text-anchor:middle;font-size:18px;fill:#000000;}#mermaid-1773136055462 :root{--mermaid-font-family:Space Mono,Outfit,sans-serif;}#mermaid-1773136055462 .frontend&gt;*{fill:#FFFCF5!important;stroke:#B38622!important;stroke-width:2px!important;color:#1A1918!important;}#mermaid-1773136055462 .frontend span{fill:#FFFCF5!important;stroke:#B38622!important;stroke-width:2px!important;color:#1A1918!important;}#mermaid-1773136055462 .frontend tspan{fill:#1A1918!important;}#mermaid-1773136055462 .backend&gt;*{fill:#F0F7FA!important;stroke:#2A7E9F!important;stroke-width:2px!important;color:#1A1918!important;}#mermaid-1773136055462 .backend span{fill:#F0F7FA!important;stroke:#2A7E9F!important;stroke-width:2px!important;color:#1A1918!important;}#mermaid-1773136055462 .backend tspan{fill:#1A1918!important;}#mermaid-1773136055462 .external&gt;*{fill:#F0FDF4!important;stroke:#27AE60!important;stroke-width:2px!important;color:#1A1918!important;}#mermaid-1773136055462 .external span{fill:#F0FDF4!important;stroke:#27AE60!important;stroke-width:2px!important;color:#1A1918!important;}#mermaid-1773136055462 .external tspan{fill:#1A1918!important;}</style><g><marker id="mermaid-1773136055462_flowchart-pointEnd" class="marker flowchart" viewBox="0 0 10 10" refX="6" refY="5" markerUnits="userSpaceOnUse" markerWidth="12" markerHeight="12" orient="auto"><path d="M 0 0 L 10 5 L 0 10 z" class="arrowMarkerPath" style="stroke-width: 1; stroke-dasharray: 1, 0;"/></marker><marker id="mermaid-1773136055462_flowchart-pointStart" class="marker flowchart" viewBox="0 0 10 10" refX="4.5" refY="5" markerUnits="userSpaceOnUse" markerWidth="12" markerHeight="12" orient="auto"><path d="M 0 5 L 10 10 L 10 0 z" class="arrowMarkerPath" style="stroke-width: 1; stroke-dasharray: 1, 0;"/></marker><marker id="mermaid-1773136055462_flowchart-circleEnd" class="marker flowchart" viewBox="0 0 10 10" refX="11" refY="5" markerUnits="userSpaceOnUse" markerWidth="11" markerHeight="11" orient="auto"><circle cx="5" cy="5" r="5" class="arrowMarkerPath" style="stroke-width: 1; stroke-dasharray: 1, 0;"/></marker><marker id="mermaid-1773136055462_flowchart-circleStart" class="marker flowchart" viewBox="0 0 10 10" refX="-1" refY="5" markerUnits="userSpaceOnUse" markerWidth="11" markerHeight="11" orient="auto"><circle cx="5" cy="5" r="5" class="arrowMarkerPath" style="stroke-width: 1; stroke-dasharray: 1, 0;"/></marker><marker id="mermaid-1773136055462_flowchart-crossEnd" class="marker cross flowchart" viewBox="0 0 11 11" refX="12" refY="5.2" markerUnits="userSpaceOnUse" markerWidth="11" markerHeight="11" orient="auto"><path d="M 1,1 l 9,9 M 10,1 l -9,9" class="arrowMarkerPath" style="stroke-width: 2; stroke-dasharray: 1, 0;"/></marker><marker id="mermaid-1773136055462_flowchart-crossStart" class="marker cross flowchart" viewBox="0 0 11 11" refX="-1" refY="5.2" markerUnits="userSpaceOnUse" markerWidth="11" markerHeight="11" orient="auto"><path d="M 1,1 l 9,9 M 10,1 l -9,9" class="arrowMarkerPath" style="stroke-width: 2; stroke-dasharray: 1, 0;"/></marker><g class="root"><g class="clusters"><g class="cluster default flowchart-label" id="External"><rect style="" rx="0" ry="0" x="1599.1812763214111" y="0" width="282.7468776702881" height="933.7906494140625"/><g class="cluster-label" transform="translate(1678.3047151565552, 0)"><foreignObject width="124.5" height="24"><div xmlns="http://www.w3.org/1999/xhtml" style="display: inline-block; white-space: nowrap;"><span class="nodeLabel">External Services</span></div></foreignObject></g></g><g class="cluster default flowchart-label" id="Backend"><rect style="" rx="0" ry="0" x="0" y="138" width="1234.0687732696533" height="657.7906494140625"/><g class="cluster-label" transform="translate(528.0968866348267, 138)"><foreignObject width="177.875" height="24"><div xmlns="http://www.w3.org/1999/xhtml" style="display: inline-block; white-space: nowrap;"><span class="nodeLabel">FastAPI Python Backend</span></div></foreignObject></g></g><g class="cluster default flowchart-label" id="Frontend"><rect style="" rx="0" ry="0" x="1254.0687732696533" y="138" width="325.1125030517578" height="494.7906494140625"/><g class="cluster-label" transform="translate(1319.6937732696533, 138)"><foreignObject width="193.8625030517578" height="24"><div xmlns="http://www.w3.org/1999/xhtml" style="display: inline-block; white-space: nowrap;"><span class="nodeLabel">Browser Application Next.js</span></div></foreignObject></g></g><g class="cluster default flowchart-label" id="Pipeline"><rect style="" rx="0" ry="0" x="20" y="430.7906494140625" width="797.9750232696533" height="340"/><g class="cluster-label" transform="translate(323.81875705718994, 430.7906494140625)"><foreignObject width="190.33750915527344" height="24"><div xmlns="http://www.w3.org/1999/xhtml" style="display: inline-block; white-space: nowrap;"><span class="nodeLabel">Gesture Detection Pipeline</span></div></foreignObject></g></g></g><g class="edgePaths"><path d="M1409.578,202L1409.578,208.167C1409.578,214.333,1409.578,226.667,1409.578,241.599C1409.578,256.532,1409.578,274.064,1409.578,282.829L1409.578,291.595" id="L-WC-CGD-0" class=" edge-thickness-normal edge-pattern-solid flowchart-link LS-WC LE-CGD" style="fill:none;" marker-end="url(#mermaid-1773136055462_flowchart-pointEnd)"/><path d="M1409.578,335.895L1409.578,345.545C1409.578,355.194,1409.578,374.492,1409.578,390.308C1409.578,406.124,1409.578,418.457,1410.1,427.918C1410.621,437.379,1411.665,443.967,1412.186,447.262L1412.708,450.556" id="L-CGD-UI-0" class=" edge-thickness-normal edge-pattern-solid flowchart-link LS-CGD LE-UI" style="fill:none;" marker-end="url(#mermaid-1773136055462_flowchart-pointEnd)"/><path d="M1289.069,462.122L1238.49,456.9C1187.91,451.678,1086.752,441.234,1036.173,429.846C985.594,418.457,985.594,406.124,946.045,389.919C906.497,373.714,827.4,353.637,787.851,343.599L748.303,333.56" id="L-UI-WS-0" class=" edge-thickness-normal edge-pattern-solid flowchart-link LS-UI LE-WS" style="fill:none;" marker-end="url(#mermaid-1773136055462_flowchart-pointEnd)"/><path d="M1289.069,465.481L1213.886,459.699C1138.704,453.918,988.34,442.354,913.157,430.406C837.975,418.457,837.975,406.124,819.157,390.698C800.338,375.272,762.702,356.754,743.883,347.494L725.065,338.235" id="L-UI-WS-1" class=" edge-thickness-normal edge-pattern-dotted flowchart-link LS-UI LE-WS" style="fill:none;stroke-width:2px;stroke-dasharray:3;" marker-end="url(#mermaid-1773136055462_flowchart-pointEnd)"/><path d="M634.039,335.895L610.961,345.545C587.882,355.194,541.726,374.492,518.647,390.308C495.569,406.124,495.569,418.457,495.569,427.907C495.569,437.357,495.569,443.924,495.569,447.207L495.569,450.491" id="L-WS-CV-0" class=" edge-thickness-normal edge-pattern-dotted flowchart-link LS-WS LE-CV" style="fill:none;stroke-width:2px;stroke-dasharray:3;" marker-end="url(#mermaid-1773136055462_flowchart-pointEnd)"/><path d="M495.569,494.791L495.569,500.957C495.569,507.124,495.569,519.457,491.278,531.096C486.987,542.734,478.406,553.677,474.115,559.148L469.825,564.62" id="L-CV-GV-0" class=" edge-thickness-normal edge-pattern-dotted flowchart-link LS-CV LE-GV" style="fill:none;stroke-width:2px;stroke-dasharray:3;" marker-end="url(#mermaid-1773136055462_flowchart-pointEnd)"/><path d="M618.191,331.256L574.367,341.679C530.544,352.101,442.897,372.946,399.073,389.535C355.25,406.124,355.25,418.457,355.25,432.041C355.25,445.624,355.25,460.457,355.25,477.291C355.25,494.124,355.25,512.957,364.968,528.093C374.686,543.228,394.122,554.665,403.84,560.384L413.558,566.103" id="L-WS-GV-0" class=" edge-thickness-normal edge-pattern-solid flowchart-link LS-WS LE-GV" style="fill:none;" marker-end="url(#mermaid-1773136055462_flowchart-pointEnd)"/><path d="M681.599,335.895L682.054,345.545C682.509,355.194,683.42,374.492,683.876,390.308C684.331,406.124,684.331,418.457,684.331,432.041C684.331,445.624,684.331,460.457,684.331,477.291C684.331,494.124,684.331,512.957,684.331,527.657C684.331,542.357,684.331,552.924,684.331,558.207L684.331,563.491" id="L-WS-MC-0" class=" edge-thickness-normal edge-pattern-solid flowchart-link LS-WS LE-MC" style="fill:none;" marker-end="url(#mermaid-1773136055462_flowchart-pointEnd)"/><path d="M684.331,607.791L684.331,611.957C684.331,616.124,684.331,624.457,684.331,634.791C684.331,645.124,684.331,657.457,664.323,669.54C644.314,681.623,604.296,693.455,584.288,699.372L564.279,705.288" id="L-MC-TB-0" class=" edge-thickness-normal edge-pattern-solid flowchart-link LS-MC LE-TB" style="fill:none;" marker-end="url(#mermaid-1773136055462_flowchart-pointEnd)"/><path d="M451.263,607.791L451.263,611.957C451.263,616.124,451.263,624.457,451.263,634.791C451.263,645.124,451.263,657.457,455.318,669.082C459.374,680.706,467.485,691.621,471.54,697.079L475.596,702.537" id="L-GV-TB-0" class=" edge-thickness-normal edge-pattern-solid flowchart-link LS-GV LE-TB" style="fill:none;" marker-end="url(#mermaid-1773136055462_flowchart-pointEnd)"/><path d="M410.284,707.698L382.094,701.38C353.903,695.062,297.522,682.426,269.331,669.942C241.141,657.457,241.141,645.124,241.141,631.541C241.141,617.957,241.141,603.124,241.141,586.291C241.141,569.457,241.141,550.624,241.141,531.791C241.141,512.957,241.141,494.124,241.141,477.291C241.141,460.457,241.141,445.624,241.141,432.041C241.141,418.457,241.141,406.124,303.112,389.045C365.084,371.966,489.028,350.142,550.999,339.23L612.971,328.317" id="L-TB-WS-0" class=" edge-thickness-normal edge-pattern-solid flowchart-link LS-TB LE-WS" style="fill:none;" marker-end="url(#mermaid-1773136055462_flowchart-pointEnd)"/><path d="M410.284,713.502L363.026,706.216C315.767,698.931,221.249,684.361,173.99,670.909C126.731,657.457,126.731,645.124,126.731,631.541C126.731,617.957,126.731,603.124,126.731,586.291C126.731,569.457,126.731,550.624,126.731,531.791C126.731,512.957,126.731,494.124,126.731,477.291C126.731,460.457,126.731,445.624,126.731,432.041C126.731,418.457,126.731,406.124,126.731,387.058C126.731,367.992,126.731,342.194,126.731,316.395C126.731,290.597,126.731,264.798,150.588,245.946C174.445,227.094,222.158,215.189,246.015,209.236L269.871,203.283" id="L-TB-LLM-0" class=" edge-thickness-normal edge-pattern-solid flowchart-link LS-TB LE-LLM" style="fill:none;" marker-end="url(#mermaid-1773136055462_flowchart-pointEnd)"/><path d="M350.025,202L349.033,208.167C348.041,214.333,346.056,226.667,341.31,238.417C336.564,250.167,329.057,261.335,325.303,266.918L321.549,272.502" id="L-LLM-DB-0" class=" edge-thickness-normal edge-pattern-solid flowchart-link LS-LLM LE-DB" style="fill:none;" marker-end="url(#mermaid-1773136055462_flowchart-pointEnd)"/><path d="M254.075,277.61L248.472,271.175C242.87,264.74,231.665,251.87,239.733,239.614C247.802,227.359,275.144,215.717,288.815,209.897L302.486,204.076" id="L-DB-LLM-0" class=" edge-thickness-normal edge-pattern-solid flowchart-link LS-DB LE-LLM" style="fill:none;" marker-end="url(#mermaid-1773136055462_flowchart-pointEnd)"/><path d="M434.919,179.748L641.607,172.79C848.296,165.832,1261.673,151.916,1468.361,138.791C1675.05,125.667,1675.05,113.333,1683.032,101.511C1691.014,89.688,1706.979,78.376,1714.961,72.72L1722.943,67.064" id="L-LLM-GROQ-0" class=" edge-thickness-normal edge-pattern-solid flowchart-link LS-LLM LE-GROQ" style="fill:none;" marker-end="url(#mermaid-1773136055462_flowchart-pointEnd)"/><path d="M1765.17,64L1768.453,70.167C1771.736,76.333,1778.302,88.667,1781.586,101C1784.869,113.333,1784.869,125.667,1560.76,138.799C1336.651,151.931,888.434,165.863,664.325,172.829L440.216,179.794" id="L-GROQ-LLM-0" class=" edge-thickness-normal edge-pattern-solid flowchart-link LS-GROQ LE-LLM" style="fill:none;" marker-end="url(#mermaid-1773136055462_flowchart-pointEnd)"/><path d="M434.919,196.604L475.879,203.67C516.839,210.736,598.758,224.868,639.718,240.7C680.678,256.532,680.678,274.064,680.678,282.829L680.678,291.595" id="L-LLM-WS-0" class=" edge-thickness-normal edge-pattern-solid flowchart-link LS-LLM LE-WS" style="fill:none;" marker-end="url(#mermaid-1773136055462_flowchart-pointEnd)"/><path d="M743.166,327.093L808.102,338.209C873.038,349.325,1002.909,371.558,1067.845,388.841C1132.781,406.124,1132.781,418.457,1158.486,428.654C1184.19,438.85,1235.599,446.91,1261.304,450.94L1287.008,454.97" id="L-WS-UI-0" class=" edge-thickness-normal edge-pattern-solid flowchart-link LS-WS LE-UI" style="fill:none;" marker-end="url(#mermaid-1773136055462_flowchart-pointEnd)"/><path d="M1416.625,494.791L1416.625,500.957C1416.625,507.124,1416.625,519.457,1416.625,530.907C1416.625,542.357,1416.625,552.924,1416.625,558.207L1416.625,563.491" id="L-UI-TTSHook-0" class=" edge-thickness-normal edge-pattern-solid flowchart-link LS-UI LE-TTSHook" style="fill:none;" marker-end="url(#mermaid-1773136055462_flowchart-pointEnd)"/><path d="M1446.953,607.791L1453.433,611.957C1459.913,616.124,1472.874,624.457,1534.762,634.791C1596.651,645.124,1707.468,657.457,1762.876,673.041C1818.284,688.624,1818.284,707.457,1818.284,724.291C1818.284,741.124,1818.284,755.957,1818.284,767.541C1818.284,779.124,1818.284,787.457,1818.284,797.791C1818.284,808.124,1818.284,820.457,1811.416,832.232C1804.547,844.007,1790.809,855.223,1783.94,860.831L1777.071,866.439" id="L-TTSHook-GTTS-0" class=" edge-thickness-normal edge-pattern-solid flowchart-link LS-TTSHook LE-GTTS" style="fill:none;" marker-end="url(#mermaid-1773136055462_flowchart-pointEnd)"/><path d="M1384.484,607.791L1377.617,611.957C1370.749,616.124,1357.014,624.457,1295.636,634.791C1234.258,645.124,1125.239,657.457,1070.729,668.907C1016.219,680.357,1016.219,690.924,1016.219,696.207L1016.219,701.491" id="L-TTSHook-TTSAPI-0" class=" edge-thickness-normal edge-pattern-solid flowchart-link LS-TTSHook LE-TTSAPI" style="fill:none;" marker-end="url(#mermaid-1773136055462_flowchart-pointEnd)"/><path d="M1016.219,745.791L1016.219,749.957C1016.219,754.124,1016.219,762.457,1016.219,770.791C1016.219,779.124,1016.219,787.457,1140.04,797.791C1263.861,808.124,1511.504,820.457,1634.382,831.921C1757.26,843.385,1755.372,853.979,1754.429,859.276L1753.485,864.573" id="L-TTSAPI-GTTS-0" class=" edge-thickness-normal edge-pattern-solid flowchart-link LS-TTSAPI LE-GTTS" style="fill:none;" marker-end="url(#mermaid-1773136055462_flowchart-pointEnd)"/><path d="M1729.132,869.791L1722.823,863.624C1716.514,857.457,1703.896,845.124,1697.587,832.791C1691.278,820.457,1691.278,808.124,1691.278,797.791C1691.278,787.457,1691.278,779.124,1691.278,767.541C1691.278,755.957,1691.278,741.124,1691.278,724.291C1691.278,707.457,1691.278,688.624,1642.316,673.041C1593.353,657.457,1495.428,645.124,1447.907,635.602C1400.387,626.08,1403.27,619.37,1404.712,616.015L1406.153,612.66" id="L-GTTS-TTSHook-0" class=" edge-thickness-normal edge-pattern-solid flowchart-link LS-GTTS LE-TTSHook" style="fill:none;" marker-end="url(#mermaid-1773136055462_flowchart-pointEnd)"/></g><g class="edgeLabels"><g class="edgeLabel" transform="translate(1409.5781497955322, 239)"><g class="label" transform="translate(-81.0062484741211, -12)"><foreignObject width="162.0124969482422" height="24"><div xmlns="http://www.w3.org/1999/xhtml" style="display: inline-block; white-space: nowrap;"><span class="edgeLabel">Video Frames ~60FPS</span></div></foreignObject></g></g><g class="edgeLabel" transform="translate(1409.5781497955322, 393.7906494140625)"><g class="label" transform="translate(-68.1812515258789, -12)"><foreignObject width="136.3625030517578" height="24"><div xmlns="http://www.w3.org/1999/xhtml" style="display: inline-block; white-space: nowrap;"><span class="edgeLabel">ASL Rules / Motion</span></div></foreignObject></g></g><g class="edgeLabel" transform="translate(985.5937747955322, 393.7906494140625)"><g class="label" transform="translate(-61.368751525878906, -12)"><foreignObject width="122.73750305175781" height="24"><div xmlns="http://www.w3.org/1999/xhtml" style="display: inline-block; white-space: nowrap;"><span class="edgeLabel">1. JSON Payload</span></div></foreignObject></g></g><g class="edgeLabel" transform="translate(837.9750232696533, 393.7906494140625)"><g class="label" transform="translate(-66.25, -12)"><foreignObject width="132.5" height="24"><div xmlns="http://www.w3.org/1999/xhtml" style="display: inline-block; white-space: nowrap;"><span class="edgeLabel">1b. Fallback JPEG</span></div></foreignObject></g></g><g class="edgeLabel" transform="translate(495.5687656402588, 393.7906494140625)"><g class="label" transform="translate(-20.899999618530273, -12)"><foreignObject width="41.79999923706055" height="24"><div xmlns="http://www.w3.org/1999/xhtml" style="display: inline-block; white-space: nowrap;"><span class="edgeLabel">JPEG</span></div></foreignObject></g></g><g class="edgeLabel"><g class="label" transform="translate(0, 0)"><foreignObject width="0" height="0"><div xmlns="http://www.w3.org/1999/xhtml" style="display: inline-block; white-space: nowrap;"><span class="edgeLabel"></span></div></foreignObject></g></g><g class="edgeLabel" transform="translate(355.2500114440918, 475.2906494140625)"><g class="label" transform="translate(-21.337499618530273, -12)"><foreignObject width="42.67499923706055" height="24"><div xmlns="http://www.w3.org/1999/xhtml" style="display: inline-block; white-space: nowrap;"><span class="edgeLabel">JSON</span></div></foreignObject></g></g><g class="edgeLabel" transform="translate(684.3312702178955, 475.2906494140625)"><g class="label" transform="translate(-21.337499618530273, -12)"><foreignObject width="42.67499923706055" height="24"><div xmlns="http://www.w3.org/1999/xhtml" style="display: inline-block; white-space: nowrap;"><span class="edgeLabel">JSON</span></div></foreignObject></g></g><g class="edgeLabel" transform="translate(684.3312702178955, 669.7906494140625)"><g class="label" transform="translate(-65.1624984741211, -12)"><foreignObject width="130.3249969482422" height="24"><div xmlns="http://www.w3.org/1999/xhtml" style="display: inline-block; white-space: nowrap;"><span class="edgeLabel">Confidence &gt; 0.75</span></div></foreignObject></g></g><g class="edgeLabel" transform="translate(451.2625141143799, 669.7906494140625)"><g class="label" transform="translate(-55.14374923706055, -12)"><foreignObject width="110.2874984741211" height="24"><div xmlns="http://www.w3.org/1999/xhtml" style="display: inline-block; white-space: nowrap;"><span class="edgeLabel">Winner &gt;= 55%</span></div></foreignObject></g></g><g class="edgeLabel" transform="translate(241.14063262939453, 531.7906494140625)"><g class="label" transform="translate(-88.79375457763672, -12)"><foreignObject width="177.58750915527344" height="24"><div xmlns="http://www.w3.org/1999/xhtml" style="display: inline-block; white-space: nowrap;"><span class="edgeLabel">Immediate Token Update</span></div></foreignObject></g></g><g class="edgeLabel" transform="translate(126.73125457763672, 475.2906494140625)"><g class="label" transform="translate(-86.73125457763672, -12)"><foreignObject width="173.46250915527344" height="24"><div xmlns="http://www.w3.org/1999/xhtml" style="display: inline-block; white-space: nowrap;"><span class="edgeLabel">Debounce 500ms pause</span></div></foreignObject></g></g><g class="edgeLabel" transform="translate(344.07188415527344, 239)"><g class="label" transform="translate(-49.806251525878906, -12)"><foreignObject width="99.61250305175781" height="24"><div xmlns="http://www.w3.org/1999/xhtml" style="display: inline-block; white-space: nowrap;"><span class="edgeLabel">Fetch Context</span></div></foreignObject></g></g><g class="edgeLabel" transform="translate(220.45938110351562, 239)"><g class="label" transform="translate(-53.806251525878906, -12)"><foreignObject width="107.61250305175781" height="24"><div xmlns="http://www.w3.org/1999/xhtml" style="display: inline-block; white-space: nowrap;"><span class="edgeLabel">Return Context</span></div></foreignObject></g></g><g class="edgeLabel" transform="translate(1675.05002784729, 101)"><g class="label" transform="translate(-25.787500381469727, -12)"><foreignObject width="51.57500076293945" height="24"><div xmlns="http://www.w3.org/1999/xhtml" style="display: inline-block; white-space: nowrap;"><span class="edgeLabel">Prompt</span></div></foreignObject></g></g><g class="edgeLabel" transform="translate(1784.8687782287598, 101)"><g class="label" transform="translate(-64.03125, -12)"><foreignObject width="128.0625" height="24"><div xmlns="http://www.w3.org/1999/xhtml" style="display: inline-block; white-space: nowrap;"><span class="edgeLabel">Streamed Chunks</span></div></foreignObject></g></g><g class="edgeLabel" transform="translate(680.6781454086304, 239)"><g class="label" transform="translate(-68.0562515258789, -12)"><foreignObject width="136.1125030517578" height="24"><div xmlns="http://www.w3.org/1999/xhtml" style="display: inline-block; white-space: nowrap;"><span class="edgeLabel">Chunked Sentence</span></div></foreignObject></g></g><g class="edgeLabel" transform="translate(1132.7812747955322, 393.7906494140625)"><g class="label" transform="translate(-65.8187484741211, -12)"><foreignObject width="131.6374969482422" height="24"><div xmlns="http://www.w3.org/1999/xhtml" style="display: inline-block; white-space: nowrap;"><span class="edgeLabel">Phase 2: Finalized</span></div></foreignObject></g></g><g class="edgeLabel" transform="translate(1416.6250247955322, 531.7906494140625)"><g class="label" transform="translate(-72.04375457763672, -12)"><foreignObject width="144.08750915527344" height="24"><div xmlns="http://www.w3.org/1999/xhtml" style="display: inline-block; white-space: nowrap;"><span class="edgeLabel">On Finalized: Speak</span></div></foreignObject></g></g><g class="edgeLabel" transform="translate(1818.28440284729, 726.2906494140625)"><g class="label" transform="translate(-29.793750762939453, -12)"><foreignObject width="59.587501525878906" height="24"><div xmlns="http://www.w3.org/1999/xhtml" style="display: inline-block; white-space: nowrap;"><span class="edgeLabel">Fallback</span></div></foreignObject></g></g><g class="edgeLabel" transform="translate(1016.2187738418579, 669.7906494140625)"><g class="label" transform="translate(-34.53125, -12)"><foreignObject width="69.0625" height="24"><div xmlns="http://www.w3.org/1999/xhtml" style="display: inline-block; white-space: nowrap;"><span class="edgeLabel">POST /tts</span></div></foreignObject></g></g><g class="edgeLabel" transform="translate(1759.1469020843506, 832.7906494140625)"><g class="label" transform="translate(-39.13750076293945, -12)"><foreignObject width="78.2750015258789" height="24"><div xmlns="http://www.w3.org/1999/xhtml" style="display: inline-block; white-space: nowrap;"><span class="edgeLabel">Audio MP3</span></div></foreignObject></g></g><g class="edgeLabel" transform="translate(1691.2781524658203, 726.2906494140625)"><g class="label" transform="translate(-32.462501525878906, -12)"><foreignObject width="64.92500305175781" height="24"><div xmlns="http://www.w3.org/1999/xhtml" style="display: inline-block; white-space: nowrap;"><span class="edgeLabel">Playback</span></div></foreignObject></g></g></g><g class="nodes"><g class="node default external flowchart-label" id="flowchart-GROQ-16" data-node="true" data-id="GROQ" transform="translate(1754.7875270843506, 44.5)"><rect class="basic label-container" style="" rx="0" ry="0" x="-75.0875015258789" y="-19.5" width="150.1750030517578" height="39"/><g class="label" style="" transform="translate(-67.5875015258789, -12)"><rect/><foreignObject width="135.1750030517578" height="24"><div xmlns="http://www.w3.org/1999/xhtml" style="display: inline-block; white-space: nowrap;"><span class="nodeLabel">Groq API llama-3.3</span></div></foreignObject></g></g><g class="node default external flowchart-label" id="flowchart-GTTS-17" data-node="true" data-id="GTTS" transform="translate(1749.08127784729, 889.2906494140625)"><rect class="basic label-container" style="" rx="0" ry="0" x="-94.0625" y="-19.5" width="188.125" height="39"/><g class="label" style="" transform="translate(-86.5625, -12)"><rect/><foreignObject width="173.125" height="24"><div xmlns="http://www.w3.org/1999/xhtml" style="display: inline-block; white-space: nowrap;"><span class="nodeLabel">gTTS / Web Speech API</span></div></foreignObject></g></g><g class="node default backend flowchart-label" id="flowchart-WS-8" data-node="true" data-id="WS" transform="translate(680.6781454086304, 316.39532470703125)"><rect class="basic label-container" style="" rx="0" ry="0" x="-62.48749923706055" y="-19.5" width="124.9749984741211" height="39"/><g class="label" style="" transform="translate(-54.98749923706055, -12)"><rect/><foreignObject width="109.9749984741211" height="24"><div xmlns="http://www.w3.org/1999/xhtml" style="display: inline-block; white-space: nowrap;"><span class="nodeLabel">WebSocket /ws</span></div></foreignObject></g></g><g class="node default backend flowchart-label" id="flowchart-LLM-13" data-node="true" data-id="LLM" transform="translate(353.1625099182129, 182.5)"><rect class="basic label-container" style="" rx="0" ry="0" x="-81.7562484741211" y="-19.5" width="163.5124969482422" height="39"/><g class="label" style="" transform="translate(-74.2562484741211, -12)"><rect/><foreignObject width="148.5124969482422" height="24"><div xmlns="http://www.w3.org/1999/xhtml" style="display: inline-block; white-space: nowrap;"><span class="nodeLabel">LLM Service Context</span></div></foreignObject></g></g><g class="node default backend flowchart-label" id="flowchart-DB-14" label-offset-y="13.930216201850156" data-node="true" data-id="DB" transform="translate(290.7750053405762, 316.39532470703125)"><path style="" d="M 0,13.930216201850156 a 78.6500015258789,13.930216201850156 0,0,0 157.3000030517578 0 a 78.6500015258789,13.930216201850156 0,0,0 -157.3000030517578 0 l 0,52.93021620185016 a 78.6500015258789,13.930216201850156 0,0,0 157.3000030517578 0 l 0,-52.93021620185016" transform="translate(-78.6500015258789,-40.395324302775236)"/><g class="label" style="" transform="translate(-71.1500015258789, -12)"><rect/><foreignObject width="142.3000030517578" height="24"><div xmlns="http://www.w3.org/1999/xhtml" style="display: inline-block; white-space: nowrap;"><span class="nodeLabel">conversation history</span></div></foreignObject></g></g><g class="node default backend flowchart-label" id="flowchart-TTSAPI-15" data-node="true" data-id="TTSAPI" transform="translate(1016.2187738418579, 726.2906494140625)"><rect class="basic label-container" style="" rx="0" ry="0" x="-65.44375228881836" y="-19.5" width="130.88750457763672" height="39"/><g class="label" style="" transform="translate(-57.94375228881836, -12)"><rect/><foreignObject width="115.88750457763672" height="24"><div xmlns="http://www.w3.org/1999/xhtml" style="display: inline-block; white-space: nowrap;"><span class="nodeLabel">REST POST /tts</span></div></foreignObject></g></g><g class="node default backend flowchart-label" id="flowchart-CV-9" data-node="true" data-id="CV" transform="translate(495.5687656402588, 475.2906494140625)"><rect class="basic label-container" style="" rx="0" ry="0" x="-83.98125457763672" y="-19.5" width="167.96250915527344" height="39"/><g class="label" style="" transform="translate(-76.48125457763672, -12)"><rect/><foreignObject width="152.96250915527344" height="24"><div xmlns="http://www.w3.org/1999/xhtml" style="display: inline-block; white-space: nowrap;"><span class="nodeLabel">Backend CV Fallback</span></div></foreignObject></g></g><g class="node default backend flowchart-label" id="flowchart-GV-10" data-node="true" data-id="GV" transform="translate(451.2625141143799, 588.2906494140625)"><rect class="basic label-container" style="" rx="0" ry="0" x="-84.42500305175781" y="-19.5" width="168.85000610351562" height="39"/><g class="label" style="" transform="translate(-76.92500305175781, -12)"><rect/><foreignObject width="153.85000610351562" height="24"><div xmlns="http://www.w3.org/1999/xhtml" style="display: inline-block; white-space: nowrap;"><span class="nodeLabel">GestureVoter 7-frame</span></div></foreignObject></g></g><g class="node default backend flowchart-label" id="flowchart-MC-11" data-node="true" data-id="MC" transform="translate(684.3312702178955, 588.2906494140625)"><rect class="basic label-container" style="" rx="0" ry="0" x="-98.64375305175781" y="-19.5" width="197.28750610351562" height="39"/><g class="label" style="" transform="translate(-91.14375305175781, -12)"><rect/><foreignObject width="182.28750610351562" height="24"><div xmlns="http://www.w3.org/1999/xhtml" style="display: inline-block; white-space: nowrap;"><span class="nodeLabel">MotionClassifier 25-frame</span></div></foreignObject></g></g><g class="node default backend flowchart-label" id="flowchart-TB-12" data-node="true" data-id="TB" transform="translate(493.2468900680542, 726.2906494140625)"><rect class="basic label-container" style="" rx="0" ry="0" x="-82.9625015258789" y="-19.5" width="165.9250030517578" height="39"/><g class="label" style="" transform="translate(-75.4625015258789, -12)"><rect/><foreignObject width="150.9250030517578" height="24"><div xmlns="http://www.w3.org/1999/xhtml" style="display: inline-block; white-space: nowrap;"><span class="nodeLabel">TokenBuffer Adaptive</span></div></foreignObject></g></g><g class="node default frontend flowchart-label" id="flowchart-WC-0" data-node="true" data-id="WC" transform="translate(1409.5781497955322, 182.5)"><rect class="basic label-container" style="" rx="0" ry="0" x="-52.125" y="-19.5" width="104.25" height="39"/><g class="label" style="" transform="translate(-44.625, -12)"><rect/><foreignObject width="89.25" height="24"><div xmlns="http://www.w3.org/1999/xhtml" style="display: inline-block; white-space: nowrap;"><span class="nodeLabel">📸 Webcam</span></div></foreignObject></g></g><g class="node default frontend flowchart-label" id="flowchart-CGD-1" data-node="true" data-id="CGD" transform="translate(1409.5781497955322, 316.39532470703125)"><rect class="basic label-container" style="" rx="0" ry="0" x="-113.4625015258789" y="-19.5" width="226.9250030517578" height="39"/><g class="label" style="" transform="translate(-105.9625015258789, -12)"><rect/><foreignObject width="211.9250030517578" height="24"><div xmlns="http://www.w3.org/1999/xhtml" style="display: inline-block; white-space: nowrap;"><span class="nodeLabel">ClientGestureDetector WASM</span></div></foreignObject></g></g><g class="node default frontend flowchart-label" id="flowchart-UI-2" data-node="true" data-id="UI" transform="translate(1416.6250247955322, 475.2906494140625)"><rect class="basic label-container" style="" rx="0" ry="0" x="-127.5562515258789" y="-19.5" width="255.1125030517578" height="39"/><g class="label" style="" transform="translate(-120.0562515258789, -12)"><rect/><foreignObject width="240.1125030517578" height="24"><div xmlns="http://www.w3.org/1999/xhtml" style="display: inline-block; white-space: nowrap;"><span class="nodeLabel">UI Components SignStreamClient</span></div></foreignObject></g></g><g class="node default frontend flowchart-label" id="flowchart-TTSHook-3" data-node="true" data-id="TTSHook" transform="translate(1416.6250247955322, 588.2906494140625)"><rect class="basic label-container" style="" rx="0" ry="0" x="-56.40625" y="-19.5" width="112.8125" height="39"/><g class="label" style="" transform="translate(-48.90625, -12)"><rect/><foreignObject width="97.8125" height="24"><div xmlns="http://www.w3.org/1999/xhtml" style="display: inline-block; white-space: nowrap;"><span class="nodeLabel">useTTS Hook</span></div></foreignObject></g></g></g></g></g></svg>